<svg xmlns="http://www.w3.org/2000/svg" viewBox="0 0 189.5 189.5" height="716.22" width="716.22"><g stroke="#fff" stroke-linecap="round" stroke-linejoin="bevel"><path d="M80.596 114.4c1.701 20.41 19.372 31.088 20.884 36.947M101.48 151.347c35.34-.661 44.317-12.851 44.317-12.851M80.596 114.4c19.705-78.12-2.612-88.01-2.612-88.01M60.344 56.058c8.285-9.355 8.018-19.511 11.894-25.658 3.875-6.147 5.746-4.01 5.746-4.01M60.344 56.058C32.31 66.68 33.16 72.728 32.5 73.01c-.661.284-5.953 11.907-5.48 19.75.472 7.843-1.324 18.71-11.245 23.34-9.922 4.63-12.38 5.575-12.38 5.575M80.596 114.4c-9.26 37.514-12.945 45.924-12.945 45.924" fill="none" stroke-width="4"/><path d="M58.485 56.664s-.945-19.938-6.71-26.364c-5.763-6.425-8.126-.472-15.685 37.892M83.431 32.568S98.072 12.075 126.29 8.866c28.253-3.213 44.926 6.126 50.974 9.433 6.048 3.308 9.45 7.938 9.45 7.938M117.26 150.213s5.575 19.56.85 23.813M118.11 174.026s-6.047 6.52-7.086 12.19M153.64 131.787s-.283 26.458 9.733 33.45M163.373 165.238s12.379-2.174 23.246 6.33M76.817 149.552s-4.725 15.308 8.977 36.758M76.817 149.552s-2.08-2.363-6.237 2.362M50.736 140.953l13.891 17.67s5.519 4.279 7.125 9.76M50.736 140.953s-3.023-1.229-3.118 1.134c-.094 2.362 1.228 8.22 3.59 10.583 2.363 2.362 10.206 10.205 9.923 15.497M61.13 168.167s.331.803-1.606.378c-1.937-.425-9.118-3.922-10.866-4.158-1.749-.236-12.426-8.977-18.049-7.748-5.622 1.228 2.977 6.661 2.977 6.661s20.6 12.474 19.796 15.214c-.803 2.74-10.489-1.7-10.489-1.7s-2.882-.993-6.52-.757c-3.638.236-3.827-2.079-7.984-2.315-4.158-.236-4.394 4.678-.52 5.008 3.874.331 16.3 7.418 16.3 7.418M3.395 161.883s11.34 10.725 21.875 13.087" fill="none" stroke-width="4"/><path d="M111.66 110.781s-18.496-4.413-9.235-40.51M105.543 83.595s4.536 10.205 10.3 16.253M111.874 74.334s-.945 16.537 3.969 25.514M111.874 74.334s-1.417 19.088 15.308 27.782M128.977 75.752s1.111 25.646 33.168 37.986M142.301 94.745s9.45 15.78 19.844 18.993M142.301 94.745s10.678 14.836 23.246 16.442M165.547 111.187s13.134 4.914 20.788-1.134M147.12 80.76s3.97 18.615 12.757 25.23M159.877 105.99s14.174 10.678 26.458 4.063M147.12 80.76s5.953 24.285 28.254 21.923M151.94 79.154s5.953 22.395 23.434 23.529M128.977 75.752s-4.724 12.473-1.795 26.364" fill="none" stroke-width="2.5"/><path d="M150.48 108.242s-6.881 24.856-11.826 27.796" fill="none" stroke-width="4"/><path d="M138.654 136.038s5.279-1.67 7.617-5.813M147.14 124.746s.668 18.508-7.283 23.787M153.64 131.787s-8.104 16.211-13.783 16.746M146.271 130.225s.401-.869.869-1.604M153.64 131.787s2.988-5.972 4.458-10.115M153.64 131.787s6.462-5.037 7.732-7.242M161.372 124.546s-1.27 22.316 8.553 29.8M169.925 154.346s4.744 3.608 9.087 2.606M166.25 131.762s-3.542 22.05 12.762 25.19M166.25 131.762s3.808 17.773 13.23 14.7M168.054 125.013s-1.07 19.043 11.425 21.449M186.763 149.936s-14.233 10.624-17.774 9.89M179.346 148.867s-3.007 7.884-10.357 10.958" fill="none" stroke-width="2"/><path d="M183.622 145.994s-5.345-.134-11.76 7.15c-6.414 7.282-8.285 8.084-16.303 7.75M161.439 156.284c-3.207 2.338-2.272 3.675-5.88 4.61M155.01 130.7s2.93 12.662 9.97 17.434M174.802 123.877s-1.47 3.274 9.288 16.504" fill="none" stroke-width="2"/><path d="M180.148 108.175s-4.878 19.711 3.942 32.206" fill="none" stroke-width="4"/><path d="M175.604 127.753l-.601 14.9M175.203 139.179s-.334.735-4.744 3.942c-4.41 3.207-1.27 7.216-1.27 7.216M175.003 142.653s3.875-1.537 3.608-6.147M178.61 136.506s8.153-10.691 8.153-13.831M186.896 129.223s-7.016 12.829-10.223 13.697M187.03 134.1s-7.083 7.885-10.357 8.82M183.622 145.994s.602 2.806-7.817 9.087M186.896 152.542s-4.543 3.34-6.214 3.875M180.682 156.417s3.341.268 6.014-1.737M161.439 156.284s-1.403.334-3.675 1.002M185.768 135.614s-1.89 13.843-21.025 16.961M186.76 140.197s-3.826 11.717-22.017 12.378M169.374 143.882s4.3.52 5.48-2.646M168.57 148.843s6.52-1.701 14.127-6.378M154.68 145.866s2.457 2.08 3.59 5.481M161.342 144.59s0 4.111-3.071 6.757M161.506 117.596l-.134 6.95M161.439 156.284s6.376-2.67 8.643-7.96M175.203 139.179s2.203-1.45 3.408-2.673M178.492 134.669l.119 1.837M178.492 134.669s3.73 3.345 5.598 5.712" fill="none" stroke-width="2"/><path d="M92.15 63.274s-2.438 41.243 19.51 47.507M86.408 86.004S90.99 74.571 92.172 69.8M102.425 70.271s.17 5.915 3.118 13.324M118.158 54.585s-5.811 7.654-6.284 19.75M106.866 53.12s-2.504 9.166-4.441 17.151M130.369 60.601s-1.38 6.848-1.392 15.15M149.946 64.009s-.156 8.44 1.994 15.145M137.986 87.128s-.657.2 4.315 7.617" fill="none" stroke-width="2.5"/><path d="M120 163.537s-12.095 6.425-16.63 9.638c-4.536 3.213-11.718 4.82-19.088 10.772M163.373 165.238c-20.848 15.148-47.72 20.694-47.72 20.694" fill="none" stroke-width="4"/><path d="M33.727 112.226s5.954-26.08 34.113-18.142M33.727 112.226s5.576-2.645 11.15-4.063M44.878 108.163c13.134-3.685 17.292-9.733 17.292-9.733M62.17 98.43c3.024-4.252 5.67-4.346 5.67-4.346M29.759 123.566s15.888-16.471 37.136-10.49M38.83 125.645s10.3-10.678 32.412-1.796M42.137 130.086s11.907-5.103 24.38 6.52M29.759 123.566l4.63.661M34.389 124.227s7.748-10.772 32.506-11.15M38.83 125.645c-1.417 2.078 3.969.567 3.969.567M42.799 126.212s7.201-5.178 28.443-2.363M42.137 130.086c-2.078 1.984 4.158 2.362 4.158 2.362M46.295 132.448s6.78-1.726 20.222 4.158M33.727 112.226s-.867-26.249 30.428-22.111M64.155 90.115s2.645-5.48 6.709-6.52c4.063-1.04 5.858 1.7 6.047 4.441.19 2.74-4.158 5.859-6.614 5.953l-2.457.095" fill="none" stroke-width="2"/><path d="M3.773 144.354s6.236-.283 10.016.756c3.78 1.04 7.37 2.835 13.513 3.497 6.142.661 10.016-2.174 11.906-2.268" fill="none" stroke-width="4"/><path d="M39.208 146.339s.662-2.457 3.78-2.363c3.118.095 4.252.473 5.386 3.402 1.134 2.93-1.04 6.331-5.67 7.56-4.63 1.228-12 .85-20.127-2.08-8.126-2.928-11.15-4.913-11.15-4.913M11.427 147.945s-5.67 1.04-8.032-.472M20.404 163.064s10.394 2.174 14.93 1.134M20.404 163.064s12.851 8.221 16.536 8.505c3.686.283 5.953-2.174 5.953-2.174M8.214 159.851s12.851 9.828 22.017 12.19M30.231 172.041s2.079 2.504 5.434 4.11M8.214 159.851c-1.512-.897.473 2.646 3.638 5.812 3.166 3.165 9.591 8.174 13.418 9.307M94.204 147.378s4.157 18.994 17.009 18.143M73.604 140.67c.945 2.456 9.26 15.213 17.387 18.142M80.974 144.165s1.89 8.977 10.017 14.647M80.974 144.165s13.135 22.679 30.239 21.356M96.283 152.953s10.96 11.812 23.15 7.938M80.974 144.165s-1.52-7.325-1.587-8.728" fill="none" stroke-width="4"/><path d="M37.232 101.966c-.013-.394 1.684-3.037 2.736-4.262 3.066-3.57 7.419-5.777 13.017-6.6 1.693-.25 2.899-.288 6.13-.196 2.212.063 4.33.165 4.706.228.81.134.905.047 2.209-2.006 1.127-1.776 2.707-3.375 3.964-4.012 1-.507 2.594-.775 3.402-.572 1.251.314 2.358 1.953 2.366 3.5.007 1.54-1.569 3.287-3.94 4.369-1.442.658-3.357.672-6.159.045-3.42-.765-5.173-.928-8.782-.819-3.427.104-4.785.321-7.401 1.182-4.532 1.492-8.763 4.63-11.827 8.773-.229.309-.418.475-.421.37z" fill="#fff" stroke-width="1.76765898"/><path d="M32.899 122.987c-.457-.066-.826-.136-.819-.155.02-.054 1.161-.977 1.954-1.579 6.89-5.233 14.709-8.177 22.427-8.443l.702-.024-.837.138c-4.855.803-8.912 1.958-12.727 3.626-.798.349-2.87 1.408-3.649 1.866-2.092 1.23-3.976 2.657-5.385 4.082-.463.469-.642.62-.725.616-.06-.003-.484-.06-.941-.127zM40.558 125.526c.202-.166 1.106-.768 1.539-1.023 2.504-1.476 5.5-2.47 8.758-2.901 1.283-.17 1.85-.213 3.314-.244 2.16-.046 4.129.103 6.431.487l.772.129-2.362.029c-2.96.037-4.457.129-6.76.416-3.912.488-7.447 1.467-9.502 2.633-.22.125-.53.253-.745.307-.466.118-1.347.287-1.482.285-.096-.002-.094-.01.037-.118zM59.22 132.846c-2.134-.644-4.969-1.233-7.062-1.468-1.763-.198-4.075-.219-5.396-.048-.65.084-.695.085-1.333.004-.98-.123-2.275-.405-2.275-.495 0-.043.51-.195 1.183-.353.59-.138 1.701-.32 2.465-.405.709-.078 3.267-.08 3.976-.001 2.858.313 5.255.999 7.788 2.227.96.466 1.444.73 1.333.725a8.45 8.45 0 0 1-.678-.186z" fill="#fff" stroke-width=".4418485999999999"/><path d="M183.772 67.731c-1.087-3.91-3.915-10.764-6.5-15.755-8.868-17.116-22.333-30.543-39.956-39.846l-5.022-2.651 7.938.179c13.091.295 22.318 2.522 33.202 8.014 4.758 2.401 6.641 3.64 9.307 6.12l1.93 1.795-.108 22.3c-.108 22.252-.11 22.296-.791 19.844z" fill="#fff" stroke-width="2.857"/><path d="M129.796 180.841c.005-.005.128-.058.275-.118a93.573 93.573 0 0 0 8.212-3.854 92.804 92.804 0 0 0 20.358-14.63c.177-.17.324-.305.326-.301.684 1.08 1.645 2.254 2.474 3.021.134.124.243.23.243.236 0 .028-1.841 1.28-2.79 1.897-8.03 5.225-17.644 9.803-28.39 13.52-.595.206-.727.248-.708.23z" fill="#fff" stroke-width=".126"/><path d="M50.33 178.23c-1.45-.26-3.916-1.06-6.083-1.973-2.188-.921-3.666-1.187-6.91-1.245-1.273-.023-2.47-.082-2.66-.132-.647-.17-2.765-1.79-3.698-2.826-.396-.441-.5-.5-1.359-.755-3.59-1.071-7.964-3.223-13.182-6.486a137.296 137.296 0 0 1-6.196-4.163c-1.993-1.442-2.005-1.45-2.332-1.45-.99 0-.956.97.09 2.614 1.34 2.104 3.45 4.391 6.21 6.733.454.386.809.719.788.74-.05.048-1.352-.767-2.654-1.662-2.147-1.474-4.622-3.376-6.784-5.212l-.724-.615-.002-6.602-.003-6.602.26.063c.648.156 3.678.168 4.95.02l1.29-.15.832.467c1.77.992 5.404 2.581 8.714 3.811l1.825.678.961 1.134a96.688 96.688 0 0 0 3.39 3.799c.405.426.933 1.085 1.174 1.464.546.859 1.857 2.16 3.158 3.134.545.408 1.034.786 1.086.838.128.13-2.596.03-4.442-.164-1.705-.18-4.075-.527-6.178-.907-1.422-.257-1.566-.267-1.771-.133a.494.494 0 0 0-.106.73c.134.17 1.497 1.024 4.37 2.737 5.546 3.307 9.93 5.466 11.999 5.908 1.288.275 3.157.008 4.6-.658l.694-.32 1.653 1.1c2.48 1.649 4.834 3.074 7.016 4.246.763.41 1.01.602 1.44 1.122.287.345.521.655.521.69 0 .206-.868.218-1.937.026zM15.32 145.014c-2.638-.836-4.442-1.1-8.103-1.188l-2.386-.058v-21.584l.449-.178c.246-.098.478-.192.514-.208.036-.017.24.515.452 1.18 2.391 7.494 6.107 15.456 10.08 21.599.327.507.564.917.527.911a65.958 65.958 0 0 1-1.533-.474z" fill="#fff" stroke-width=".714"/><path d="M39.03 182.196c-4.928-2.563-8.627-4.128-10.622-4.494-1.496-.274-2.074-.688-2.074-1.484 0-.912.527-1.224 2.07-1.224 1.123 0 1.89.228 3.608 1.07 2.031.995 2.339 1.068 4.483 1.068 3.109 0 4.961.369 8.25 1.642 5.204 2.015 7.97 2.239 9.225.746l.651-.773 1.96.888c3.083 1.397 7.3 2.988 10.645 4.014l3.074.942-13.364-.015-13.363-.016z" fill="#fff" stroke-width="2.02"/><path d="M180.852 132.273a31.93 31.93 0 0 1-.238-.85l-.186-.693.4-.985c1.3-3.19 2.661-7.226 3.543-10.504.144-.533.279-1.022.301-1.087.023-.067.042 1.713.044 4.105l.004 4.223-.245.43c-.648 1.14-1.869 3.06-2.932 4.613-.311.455-.583.845-.603.866-.02.022-.06-.03-.088-.118z" fill="#fff" stroke-width=".357"/><path d="M129.676 183.139c7.795-2.618 16.478-6.33 22.57-9.65 3.872-2.108 3.62-1.956 8.292-4.994l3.682-2.393 3.935.143c5.628.205 9.842 1.372 14.426 3.994l1.938 1.109-.001 5.23c-.001 5.841-.15 6.416-1.935 7.505-.854.52-1.397.53-29.068.525l-28.197-.006z" fill="#fff" stroke-width="2.02"/><path d="M124.071 184.78a163.289 163.289 0 0 1 .989-.295c.045-.013.067-.018.069-.013.002.007.05.3.05.307 0 .002-.25.004-.557.003-.306 0-.554-.002-.55-.003z" fill="#fff" stroke-width=".045"/><path d="M124.048 184.784c.014-.004.017-.004.017 0v.003H124.036z" fill="#fff" stroke-width=".008"/><path d="M169.967 153.7c-.64-.527-1.01-.917-.919-.965.046-.024.249-.064.45-.09a6.4 6.4 0 0 0 .507-.08c.107-.026.226.067.525.407l.386.44-.257.293c-.142.16-.273.294-.291.295-.019.002-.2-.133-.401-.3z" fill="#fff" stroke-width=".505"/><path d="M173.46 155.728c-.754-.316-2.107-1.01-2.17-1.114-.018-.027.36-.473.42-.498.016-.006.115.063.22.154.457.392 1.18.899 1.797 1.261.183.108.34.2.348.206.017.013-.136.178-.162.175-.01-.001-.215-.084-.453-.184zM172.877 158.174l.348-.278c.184-.146.474-.387.645-.535l.31-.27.208.064c.325.1.315.091.189.169-.17.103-1.653.862-1.686.862-.015 0-.021-.006-.014-.012z" fill="#fff" stroke-width=".253"/><path d="M175.39 156.377l-.125-.03a8.254 8.254 0 0 1-.263-.069s.012-.014.028-.029l.028-.028.088.04a16.51 16.51 0 0 0 .267.121.13.13 0 0 1-.024-.005z" fill="#fff" stroke-width=".022"/><path d="M172.615 158.342a7.794 7.794 0 0 1 .147-.105l.006.01.009.014.004.004-.006.003c-.003 0-.024.01-.046.021a1.671 1.671 0 0 1-.115.053z" fill="#fff" stroke-width=".008"/><path d="M183.182 155.683c0-.003.055-.038.121-.079.193-.118.78-.497 1.11-.717l.305-.202v.538l-.257.096a9.293 9.293 0 0 1-1.12.338c-.13.03-.159.035-.159.026z" fill="#fff" stroke-width=".089"/><path d="M176.531 149.491c.131-.1.654-.463.925-.641.347-.228.857-.538 1.213-.736.477-.266 1.576-.792 1.622-.777.036.013-.93.657-1.465.977-.619.371-1.334.754-1.96 1.048-.338.16-.41.187-.335.13zM173.03 150.752c.156-.067.394-.172.529-.234.134-.06.249-.11.255-.11.03 0-.236.228-.288.247-.11.04-.73.22-.755.22a1.8 1.8 0 0 1 .259-.123z" fill="#fff" stroke-width=".126"/><path d="M180.696 145.684c.889-.884 1.402-1.47 2.064-2.35a21.66 21.66 0 0 0 1.502-2.29 2.66 2.66 0 0 1 .216-.336.541.541 0 0 0 .102-.189 1.25 1.25 0 0 1 .071-.196c.045-.094.045-.093.047 1.259l.002 1.353-.159.218a17.183 17.183 0 0 1-1.763 2.065c-.393.399-.403.407-.533.433-.597.12-1.288.33-2.148.655-.021.008.248-.272.6-.622zM181.362 139.026c0-.023.361-.51.379-.51.01 0 .034.025.055.056.036.056.034.06-.169.244-.202.184-.265.234-.265.21zM182.875 137.4a5.097 5.097 0 0 1-.121-.232l-.04-.084.33-.495c.412-.62.867-1.328 1.306-2.034l.34-.546.007.912.006.913-.786.787c-.432.433-.825.82-.873.858l-.087.07z" fill="#fff" stroke-width=".179"/><path d="M178.11 152.354c.71-1.131 1.647-2.948 1.726-3.346.018-.088.126-.187.387-.357.516-.335 1.555-1.122 2.127-1.612.474-.406.669-.534.669-.442 0 .098-.25.7-.411.99-.52.94-1.399 2.038-2.551 3.192-.69.69-2.033 1.912-2.147 1.953-.027.009.063-.16.2-.378z" fill="#fff" stroke-width=".357"/><path d="M178.879 134.343a1.524 1.524 0 0 1-.057-.053l.01-.02.008-.019.049.07.048.072-.058-.05z" fill="#fff" stroke-width=".016"/><path d="M179.797 133.868c-.063-.092-.448-.656-.457-.671-.003-.005.057-.15.134-.322l.215-.48c.041-.094.076-.168.077-.167 0 0 .032.105.068.231.094.328.159.54.273.898.03.092.054.171.054.176 0 .009-.29.415-.3.418a.506.506 0 0 1-.064-.083z" fill="#fff" stroke-width=".063"/><path d="M177.638 136.724l.216-.432c.184-.37.213-.426.214-.411l.014.22.013.205-.01.012c-.04.044-.453.419-.447.406z" fill="#fff" stroke-width=".032"/><path d="M175.544 141.713l.025-.62.022-.543.154-.274a94.713 94.713 0 0 0 .749-1.36c.018-.032.03-.042.198-.166.467-.341.941-.709 1.288-.997.1-.083.105-.086.102-.068 0 .01-.008.061-.014.113a5.473 5.473 0 0 1-1.541 3.177c-.3.304-.589.544-.95.788l-.037.025z" fill="#fff" stroke-width=".045"/><path d="M174.983 145.79a7.056 7.056 0 0 1-1.325-.798c-.208-.156-.483-.382-.483-.397 0-.012.314-.515.338-.54.012-.014.035.002.137.093.575.516 1.298 1.04 1.949 1.413l.102.059-.266.12c-.146.066-.274.12-.285.12-.01 0-.086-.032-.167-.07z" fill="#fff" stroke-width=".089"/><path d="M177.077 146.311a5.258 5.258 0 0 1-.397-.033l.092-.044.093-.044.06.025c.05.022.136.057.223.092l.02.008h-.023l-.067-.004z" fill="#fff" stroke-width=".022"/><path d="M160.836 160.087a93.318 93.318 0 0 0 5.776-6.419 3.01 3.01 0 0 1 .247-.271c.048-.042.19-.17.315-.286l.228-.21.109-.012c.06-.007.11-.01.11-.009l.137.151a14.01 14.01 0 0 0 1.748 1.63c.094.073.17.137.17.142 0 .039-1.463 1.535-1.925 1.968-1.192 1.117-2.137 1.834-3.153 2.391-1.109.608-2.357.988-3.78 1.15a5.64 5.64 0 0 0-.2.026c-.03.005.004-.035.218-.251zM171.475 152.459c-.127-.133-.158-.172-.142-.177l.31-.072c.16-.036.33-.076.378-.089a.431.431 0 0 1 .093-.017c.004.004-.252.288-.423.469l-.053.056z" fill="#fff" stroke-width=".089"/><path d="M176.525 155.722c-.213-.083-.384-.172-.38-.198.006-.026.243-.226.53-.445 1.655-1.266 2.792-2.249 4.02-3.475 1.55-1.545 2.351-2.566 2.951-3.76.466-.926.629-1.838.387-2.166l-.108-.147.364-.413.38-.433c.009-.01.015 1.362.015 3.05v3.071l-1.358.948c-2.564 1.788-6.163 4.129-6.338 4.122a3.211 3.211 0 0 1-.463-.154zM169.983 150.575c-.305-.412-.302-.37-.068-.779.115-.201.282-.505.37-.673.16-.303.167-.31.49-.42.847-.294 2.41-.89 3.367-1.285l1.056-.435.243.073c.385.116.681.176 1.185.24l.469.058-.517.333a27.259 27.259 0 0 1-4.008 2.139c-.74.313-2.317.903-2.416.903-.032 0-.109-.07-.171-.154zM178.554 145.705c-.188-.055-.342-.112-.342-.127s.122-.086.271-.159c.15-.072.647-.332 1.106-.576.46-.245.85-.445.868-.445.055 0-.287.36-.86.903-.298.283-.577.512-.62.509a3.844 3.844 0 0 1-.423-.105z" fill="#fff" stroke-width=".357"/><path d="M176.49 144.886c-.411-.213-.888-.506-1.277-.786-.276-.197-.93-.735-1.048-.859l-.065-.069.2-.182c.109-.1.203-.182.209-.182.006 0 .024.032.04.071.039.095.186.224.295.26.16.053.301.02.638-.15a7.314 7.314 0 0 0 1.098-.7c.264-.204.925-.857 1.123-1.109.918-1.168 1.376-2.462 1.421-4.017l.015-.508.144-.194c.08-.107.153-.195.164-.195.02-.001.958.9 1.345 1.292l.208.21-.23.317c-1.39 1.923-2.538 3.226-3.434 3.9a3.59 3.59 0 0 1-.833.457.48.48 0 0 0-.333.473.481.481 0 0 0 .502.508c.247 0 1.007-.327 1.621-.696 1.059-.637 2.296-1.599 3.804-2.957.233-.21.43-.387.438-.39.014-.009.5.528.759.84l.155.186-.048.085c-.193.341-.546.918-.73 1.194-.252.379-.136.29-1.189.91-1.368.808-3.442 1.924-4.408 2.372l-.227.105z" fill="#fff" stroke-width=".179"/><path d="M181.969 135.43c-.118-.28-.317-.778-.44-1.11l-.227-.6.338-.486a175.96 175.96 0 0 0 2.701-4.064c.19-.305.352-.555.361-.555.01 0 .018.753.018 1.673v1.673l-.516.852c-.693 1.146-1.954 3.125-1.991 3.125-.017 0-.127-.228-.245-.508zM183.742 138.897l-.242-.394.61-.609c.54-.538.61-.594.61-.482 0 .179-.582 1.7-.706 1.844-.016.02-.139-.142-.272-.359z" fill="#fff" stroke-width=".357"/></g><g stroke-linecap="round" stroke-linejoin="bevel"><rect ry="6.048" y="110.491" x="2.922" height="183.696" width="183.696" transform="translate(0 -107.5)" fill="none" stroke="#fff" stroke-width="8"/><circle r="91.848" cy="202.34" cx="94.771" transform="translate(0 -107.5)" fill="none" stroke="#fff" stroke-width="8"/><path d="M7.009 31.997l.064-23.902.625-.506c.604-.49 1.385-.506 24.326-.506h23.702l-3.424 1.7c-18.83 9.345-33.892 24.358-43.425 43.28l-1.932 3.836zM7.577 181.945c-.487-.537-.506-1.375-.571-24.408l-.067-23.85 1.549 3.175c9.214 18.884 24.634 34.42 43.575 43.903l3.429 1.717-23.705.01-23.706.01zM138.571 180.17c18.432-9.501 32.803-24.049 42.133-42.647l1.924-3.836-.068 23.902-.068 23.902-.625.505c-.604.49-1.377.506-24.21.5l-23.584-.007zM180.81 52.403c-9.396-18.908-24.073-33.715-42.873-43.253l-4.074-2.067h23.72c23.139 0 23.73.013 24.233.515.283.283.584.908.67 1.389.086.481.123 11.208.081 23.837l-.075 22.963z" fill="#fff" stroke="#fffefe" stroke-width="7.99984088"/></g></svg>